<svg xmlns="http://www.w3.org/2000/svg" width="40" height="40" viewBox="0 0 40 40">
  <g id="Group_71" data-name="Group 71" transform="translate(-113 -1039)">
    <rect id="Rectangle_48" data-name="Rectangle 48" width="40" height="40" rx="8" transform="translate(113 1039)" fill="#fe9f79"/>
    <path id="Path_189" data-name="Path 189" d="M1339.056,746.835h-1.94v-2.762a1.259,1.259,0,0,0-1.209-1.3h-15.56a1.259,1.259,0,0,0-1.21,1.3v2.762H1317.2a.9.9,0,0,0-.9.9v8.509a.9.9,0,0,0,.9.9h21.858a.9.9,0,0,0,.9-.9v-8.509A.9.9,0,0,0,1339.056,746.835Zm-11.831,6.05h-5.748a.9.9,0,0,1-.9-.9v-1.114a.9.9,0,0,1,.9-.9h5.748a.9.9,0,0,1,.9.9v1.114A.9.9,0,0,1,1327.225,752.885Zm7.552,0h-5.748a.9.9,0,0,1-.9-.9v-1.114a.9.9,0,0,1,.9-.9h5.748a.9.9,0,0,1,.9.9v1.114A.9.9,0,0,1,1334.777,752.885Zm-15.1.663H1317.2a.9.9,0,0,1-.9-.9v-4.908a.9.9,0,0,1,.9-.9h2.474a.9.9,0,0,1,.9.9v4.908A.9.9,0,0,1,1319.673,753.548Zm19.384,0h-2.474a.9.9,0,0,1-.9-.9v-4.908a.9.9,0,0,1,.9-.9h2.474a.9.9,0,0,1,.9.9v4.908A.9.9,0,0,1,1339.056,753.548Z" transform="translate(-1194.796 308.73)" fill="none" stroke="#fff" stroke-width="1.5"/>
  </g>
</svg>
