<svg xmlns="http://www.w3.org/2000/svg" width="18.262" height="17.5" viewBox="0 0 18.262 17.5">
  <g id="Group_59816" data-name="Group 59816" transform="translate(-583.25 -157.25)">
    <path id="Path_1" data-name="Path 1" d="M13.766,30.883A.883.883,0,1,1,12.883,30,.883.883,0,0,1,13.766,30.883Z" transform="translate(577.248 142.233)" fill="none" stroke="rgba(51,51,51,0.8)" stroke-linecap="round" stroke-linejoin="round" stroke-width="1.5"/>
    <path id="Path_2" data-name="Path 2" d="M30.266,30.883A.883.883,0,1,1,29.383,30,.883.883,0,0,1,30.266,30.883Z" transform="translate(568.729 142.233)" fill="none" stroke="rgba(51,51,51,0.8)" stroke-linecap="round" stroke-linejoin="round" stroke-width="1.5"/>
    <path id="Path_3" data-name="Path 3" d="M1.5,1.5H4.548L6.59,11.052A1.5,1.5,0,0,0,8.113,12.2h7.406a1.5,1.5,0,0,0,1.524-1.149l1.219-5.985H5.31" transform="translate(582.5 156.5)" fill="none" stroke="rgba(51,51,51,0.8)" stroke-linecap="round" stroke-linejoin="round" stroke-width="1.5"/>
  </g>
</svg>
