<svg xmlns="http://www.w3.org/2000/svg" width="40" height="40" viewBox="0 0 40 40">
  <g id="Group_76" data-name="Group 76" transform="translate(-113 -1099)">
    <rect id="Rectangle_48" data-name="Rectangle 48" width="40" height="40" rx="8" transform="translate(113 1099)" fill="#a3d9d0"/>
    <path id="color_icon_153584" d="M10.75,22H4.917a2.084,2.084,0,0,1-2.083-2.083v-9.7a1.977,1.977,0,0,1-.592-2.558Q3.572,5.286,4.962,2.947A1.971,1.971,0,0,1,6.666,2a2.11,2.11,0,0,1,1.2.4c.552.322,7.5,4.46,10.427,6.2.073.043,2.805,1.657,2.874,1.7a1.963,1.963,0,0,1,.583,2.553q-1.33,2.374-2.721,4.712a1.967,1.967,0,0,1-2.08.907c-.327.195-4.855,3.125-5.21,3.307A1.994,1.994,0,0,1,10.75,22ZM4.5,13.031v6.886a.416.416,0,0,0,.417.417H8.74Q6.59,16.7,4.5,13.031ZM5.838,12c.044.077,4.734,8.164,4.772,8.216a.3.3,0,0,0,.379.082c.137-.077,4.234-2.709,4.234-2.709-.533-.314-6.787-4.042-9.385-5.588Zm.549-8.191c-.761,1.213-2.666,4.6-2.7,4.675a.314.314,0,0,0,.124.387c.168.1,13.352,7.956,13.481,7.976a.313.313,0,0,0,.314-.145c.785-1.32,2.672-4.625,2.693-4.667a.316.316,0,0,0-.125-.388c-.167-.1-13.319-7.916-13.408-7.955a.313.313,0,0,0-.383.118Zm1.3,2.246A1.667,1.667,0,1,1,6.018,7.721,1.668,1.668,0,0,1,7.685,6.054Z" transform="translate(121 1107)" fill="#fff" fill-rule="evenodd"/>
  </g>
</svg>
