<svg xmlns="http://www.w3.org/2000/svg" width="18" height="16" viewBox="0 0 18 16">
  <g id="Path_31241" data-name="Path 31241" fill="none">
    <path d="M9,16C4.161,12.805,1.623,9.9.582,7.467-2.207.948,5.758-2.169,9,1.679c3.242-3.848,11.207-.731,8.418,5.788C16.377,9.9,13.839,12.805,9,16Z" stroke="none"/>
    <path d="M 9.000002861022949 14.18966293334961 C 13.56531620025635 11.02907562255859 15.35024929046631 8.486197471618652 16.03898239135742 6.876689434051514 C 16.66615295410156 5.41055965423584 16.6514835357666 4.11100959777832 15.99655246734619 3.11851954460144 C 15.34775257110596 2.135309457778931 14.07835292816162 1.499999523162842 12.76261329650879 1.499999523162842 C 12.14617252349854 1.499999523162842 10.9866828918457 1.648789525032043 10.1471529006958 2.6452796459198 L 9.000002861022949 4.006869316101074 L 7.85286283493042 2.6452796459198 C 7.013312816619873 1.648789525032043 5.853822708129883 1.499999523162842 5.237392902374268 1.499999523162842 C 3.921812772750854 1.499999523162842 2.652492761611938 2.135359525680542 2.003632783889771 3.118659496307373 C 1.348652839660645 4.11121940612793 1.333922863006592 5.41072940826416 1.96094286441803 6.876519680023193 C 2.649751901626587 8.486187934875488 4.434689521789551 11.02907562255859 9.000002861022949 14.18966293334961 M 9.000002861022949 16 C 4.160762786865234 12.80531978607178 1.622772812843323 9.899029731750488 0.5819028615951538 7.466639518737793 C -2.206517219543457 0.948140025138855 5.758053779602051 -2.169200658798218 9.000002861022949 1.678809523582458 C 12.24194145202637 -2.169201135635376 20.20653343200684 0.9481397271156311 17.4181022644043 7.466639518737793 C 16.37723350524902 9.899029731750488 13.83924293518066 12.80531978607178 9.000002861022949 16 Z" stroke="none" fill="#333"/>
  </g>
</svg>
