<svg xmlns="http://www.w3.org/2000/svg" width="56.057" height="34.847" viewBox="0 0 56.057 34.847">
  <path id="Path_33280" data-name="Path 33280" d="M1368.291,752.057h-4.43v-6.31a2.876,2.876,0,0,0-2.764-2.977h-35.546a2.876,2.876,0,0,0-2.764,2.977v6.31h-4.431a2.061,2.061,0,0,0-2.061,2.061v19.438a2.061,2.061,0,0,0,2.061,2.061h49.935a2.061,2.061,0,0,0,2.062-2.061V754.118A2.062,2.062,0,0,0,1368.291,752.057Zm-27.028,13.821h-13.131a2.061,2.061,0,0,1-2.061-2.061v-2.546a2.061,2.061,0,0,1,2.061-2.061h13.131a2.061,2.061,0,0,1,2.061,2.061v2.546A2.061,2.061,0,0,1,1341.263,765.878Zm17.253,0h-13.132a2.061,2.061,0,0,1-2.061-2.061v-2.546a2.061,2.061,0,0,1,2.061-2.061h13.132a2.062,2.062,0,0,1,2.062,2.061v2.546A2.061,2.061,0,0,1,1358.517,765.878Zm-34.507,1.515h-5.653a2.061,2.061,0,0,1-2.061-2.061V754.118a2.061,2.061,0,0,1,2.061-2.061h5.653a2.061,2.061,0,0,1,2.061,2.061v11.213A2.061,2.061,0,0,1,1324.01,767.393Zm44.282,0h-5.652a2.061,2.061,0,0,1-2.061-2.061V754.118a2.061,2.061,0,0,1,2.061-2.061h5.652a2.062,2.062,0,0,1,2.062,2.061v11.213A2.062,2.062,0,0,1,1368.291,767.393Z" transform="translate(-1315.296 -741.77)" fill="none" stroke="#000" stroke-width="2"/>
</svg>
